<svg width="36" height="36" viewBox="0 0 36 36" fill="none" xmlns="http://www.w3.org/2000/svg">
<path fill-rule="evenodd" clip-rule="evenodd" d="M24.7128 24.3587L20.6601 20.306C21.3773 19.3564 21.8026 18.174 21.8026 16.8922C21.8026 13.7608 19.2641 11.2222 16.1326 11.2222C13.0012 11.2222 10.4626 13.7608 10.4626 16.8922C10.4626 20.0237 13.0012 22.5622 16.1326 22.5622C17.4144 22.5622 18.5968 22.1369 19.5464 21.4197L23.5991 25.4724L24.7128 24.3587ZM20.2275 16.8922C20.2275 19.1538 18.3942 20.9872 16.1325 20.9872C13.8709 20.9872 12.0375 19.1538 12.0375 16.8922C12.0375 14.6306 13.8709 12.7972 16.1325 12.7972C18.3942 12.7972 20.2275 14.6306 20.2275 16.8922Z" fill="#202C43"/>
</svg>
